<svg
            fill="currentColor"
            height="65"
            viewBox="0 0 415 65"
            width="100%"
            xmlns="http://www.w3.org/2000/svg"
          >
            <path
              d="m386.08,20.04l9.13-15.82c.52-.89.2-2.01-.67-2.53s-2.01-.22-2.52.67l-9.25,16.02c-7.06-3.22-15-5.02-23.55-5.02s-16.49,1.8-23.55,5.02l-9.25-16.02c-.51-.88-1.64-1.19-2.52-.68,0,0,0,0,0,0-.88.51-1.19,1.64-.68,2.52,0,0,0,0,0,0l9.13,15.82c-15.75,8.53-26.41,24.47-28.17,43.13h110.08c-1.76-18.66-12.43-34.6-28.18-43.13h0Zm-52.13,27.67c-2.55,0-4.61-2.07-4.61-4.61s2.07-4.61,4.61-4.61,4.61,2.07,4.61,4.61c.01,2.54-2.06,4.61-4.61,4.61Zm50.53,0c-2.55,0-4.61-2.07-4.61-4.61s2.07-4.61,4.61-4.61,4.61,2.07,4.61,4.61c.01,2.54-2.06,4.61-4.61,4.61ZM20.54,21.11C10.78,21.11.74,28.94.74,42.63c0,12.52,8.83,21.36,19.8,21.36,9.06,0,13.1-6.08,13.1-6.08v2.65c0,1.25,1.18,2.65,2.65,2.65h6.55V22.05h-9.2v5.22s-4.07-6.16-13.1-6.16h0Zm1.64,8.42c8.04,0,12.25,7.07,12.25,13.1,0,6.72-5.01,13.09-12.24,13.09-6.04,0-12.1-4.9-12.1-13.18,0-7.48,5.21-13.01,12.08-13.01Zm33.45,33.69c-1.41,0-2.65-1.01-2.65-2.65V22.05h9.2v5.09c2.08-3.13,6.16-6.04,12.41-6.04,10.22,0,15.66,8.15,15.66,15.76v26.35h-6.39c-1.68,0-2.81-1.4-2.81-2.81v-21.52c0-4.22-2.59-9.35-8.57-9.35-6.46,0-10.3,6.1-10.3,11.84v21.83h-6.55Zm61.44-42.1c-9.76,0-19.8,7.82-19.8,21.52,0,12.52,8.83,21.36,19.8,21.36,9.06,0,13.1-6.08,13.1-6.08v2.65c0,1.25,1.18,2.65,2.65,2.65h6.55V1.47h-9.2v25.81s-4.07-6.16-13.1-6.16h0Zm1.64,8.42c8.04,0,12.25,7.07,12.25,13.1,0,6.72-5.01,13.09-12.24,13.09-6.04,0-12.1-4.9-12.1-13.18,0-7.48,5.21-13.01,12.08-13.01h0Zm33.45,33.69c-1.41,0-2.65-1.01-2.65-2.65V22.05h9.2v6.86c1.58-3.84,5-7.33,11.07-7.33,1.69,0,3.27.31,3.27.31v9.51s-1.98-.78-4.37-.78c-6.46,0-9.98,6.1-9.98,11.84v20.75h-6.55Zm76.72,0c-1.41,0-2.65-1.01-2.65-2.65V22.05h9.2v41.17h-6.55Zm33.53-42.1c-9.76,0-19.8,7.82-19.8,21.52,0,12.52,8.83,21.36,19.8,21.36,9.06,0,13.1-6.08,13.1-6.08v2.65c0,1.25,1.18,2.65,2.65,2.65h6.55V1.47h-9.2v25.81s-4.07-6.16-13.1-6.16h0Zm1.64,8.42c8.04,0,12.25,7.07,12.25,13.1,0,6.72-5.01,13.09-12.24,13.09-6.04,0-12.1-4.9-12.1-13.18,0-7.48,5.21-13.01,12.08-13.01ZM230.76,1c3.36,0,6.09,2.72,6.09,6.09s-2.72,6.09-6.09,6.09-6.09-2.72-6.09-6.09,2.72-6.09,6.09-6.09Zm-33.44,20.1c-10.23,0-21.46,7.63-21.46,21.46,0,12.6,9.57,21.44,21.44,21.44,14.63,0,21.77-11.76,21.77-21.36,0-11.78-9.2-21.54-21.75-21.54h0Zm.03,8.59c7.07,0,12.35,5.7,12.35,12.89s-5.6,12.97-12.33,12.97c-6.24,0-12.31-5.08-12.31-12.85s5.77-13.02,12.29-13.02h0Z"
            ></path>
          </svg>